<?xml version="1.0" encoding="UTF-8"?>
<svg id="Layer_2" data-name="Layer 2" xmlns="http://www.w3.org/2000/svg" viewBox="0 0 253.77 253.77">
  <defs>
    <style>
      .cls-1 {
        fill: #243838;
      }

      .cls-1, .cls-2 {
        stroke-width: 0px;
      }

      .cls-2 {
        fill: #b2fa63;
      }
    </style>
  </defs>
  <g id="Layer_1-2" data-name="Layer 1">
    <g>
      <circle class="cls-2" cx="126.88" cy="126.88" r="126.88"/>
      <path class="cls-1" d="M162.02,75.61c-9.58-4.06-21.43-6.09-35.54-6.09h-46.26c-3.26,0-5.72.79-7.38,2.36-1.66,1.57-2.49,3.75-2.49,6.54,0,4.33,1.9,7.5,5.69,9.52l2.76,1.51c1.54.83,2.67,1.78,3.38,2.85.71,1.07,1.07,2.67,1.07,4.8v27.89c0,2.93,3.45,4.45,5.64,2.5,14.53-12.9,29.92-20.04,37.33-21.76,1.46-.34,2.2-1.96,1.55-3.3l-3.18-6.57c-.88-1.82,1.55-4.65,4.36-4.09l27.02,9.45c1.56.37,2.36,1.89,1.62,3.34l-9.4,26.98c-1.3,2.55-5.03,2.69-5.91.87l-3.41-7.05-2.96-1.18c-30.56,11.83-51.62,32.78-52.46,55.32h0c-.28,7.96,6.1,14.57,14.07,14.57h31.37c3.32,0,5.8-.79,7.43-2.36,1.63-1.57,2.45-3.75,2.45-6.54,0-2.37-.44-4.25-1.33-5.65-.89-1.39-2.34-2.48-4.36-3.25l-5.25-2.13c-1.6-.65-2.77-1.53-3.51-2.62-.74-1.1-1.11-2.77-1.11-5.03v-11.77c5.21,1.26,10.78,1.89,16.73,1.89,10.91,0,20.18-1.66,27.8-4.98,7.62-3.32,13.42-8.02,17.39-14.1,3.97-6.08,5.96-13.18,5.96-21.31,0-8.96-2.45-16.95-7.34-23.98-4.89-7.03-12.13-12.57-21.71-16.64Z"/>
    </g>
  </g>
</svg>