<?xml version="1.0" encoding="UTF-8"?>
<svg id="Layer_2" data-name="Layer 2" xmlns="http://www.w3.org/2000/svg" viewBox="0 0 327.47 327.47">
  <defs>
    <style>
      .cls-1 {
        fill: #fafafa;
        stroke-width: 0px;
      }
    </style>
  </defs>
  <g id="Layer_1-2" data-name="Layer 1">
    <path class="cls-1" d="M163.74,0C73.31,0,0,73.31,0,163.74s67.59,157.86,153.02,163.38c-5.08-.33-10.1-.89-15.04-1.68v-118.18h-42.91v-42.87h42.92v-39.57c0-39.91,23.56-63.42,59.16-63.42,17.06,0,35.24,3.99,35.24,3.99v43.23h-28.66c-19.36-.01-22.97,9.59-22.97,23.09v32.69h49.61l-7,42.87h-42.6v119.34c-5.58.58-11.25.88-16.98.88,90.41-.03,163.69-73.32,163.69-163.74S254.17,0,163.74,0Z"/>
  </g>
</svg>