<?xml version="1.0" encoding="UTF-8"?>
<svg id="Layer_2" data-name="Layer 2" xmlns="http://www.w3.org/2000/svg" viewBox="0 0 327.47 327.47">
  <defs>
    <style>
      .cls-1 {
        fill: #fafafa;
        stroke-width: 0px;
      }
    </style>
  </defs>
  <g id="Layer_1-2" data-name="Layer 1">
    <g>
      <path class="cls-1" d="M163.74,0C73.31,0,0,73.31,0,163.74s73.31,163.74,163.74,163.74,163.74-73.31,163.74-163.74S254.17,0,163.74,0ZM266.07,210.64c0,30.57-24.86,55.43-55.43,55.43h-93.8c-30.57,0-55.43-24.86-55.43-55.43v-93.81c0-30.57,24.87-55.43,55.43-55.43h93.8c30.57,0,55.43,24.86,55.43,55.43v93.81Z"/>
      <path class="cls-1" d="M210.64,78.46h-93.8c-21.16,0-38.38,17.22-38.38,38.38v93.81c0,21.16,17.21,38.38,38.38,38.38h93.8c21.16,0,38.38-17.21,38.38-38.38v-93.81c0-21.16-17.22-38.38-38.38-38.38ZM163.74,214.9c-28.21,0-51.17-22.96-51.17-51.17s22.96-51.17,51.17-51.17,51.17,22.95,51.17,51.17-22.95,51.17-51.17,51.17ZM218.1,121.1c-6.48,0-11.73-5.25-11.73-11.72s5.25-11.73,11.73-11.73,11.72,5.25,11.72,11.73-5.25,11.72-11.72,11.72Z"/>
      <path class="cls-1" d="M163.74,129.63c-18.81,0-34.11,15.3-34.11,34.11s15.3,34.11,34.11,34.11,34.11-15.3,34.11-34.11-15.3-34.11-34.11-34.11Z"/>
    </g>
  </g>
</svg>