<?xml version="1.0" encoding="UTF-8"?>
<svg id="Layer_2" data-name="Layer 2" xmlns="http://www.w3.org/2000/svg" viewBox="0 0 962.24 124.84">
  <defs>
    <style>
      .cls-1 {
        fill: none;
      }

      .cls-1, .cls-2 {
        stroke-width: 0px;
      }

      .cls-2 {
        fill: #b2fa63;
      }
    </style>
  </defs>
  <g id="Layer_1-2" data-name="Layer 1">
    <g>
      <path class="cls-1" d="M321.96,47.16c-1.84-5.54-3.97-10.47-6.4-14.8-2.43-4.33-5.12-7.76-8.06-10.3-2.94-2.54-5.99-3.82-9.16-3.82s-5.64.92-7.76,2.76c-2.12,1.84-3.75,4.55-4.88,8.14-1.13,3.59-1.7,8.04-1.7,13.36,0,5.94.52,11.95,1.57,18.02,1.05,6.08,2.49,11.86,4.33,17.34,1.84,5.48,4,10.38,6.49,14.67,2.49,4.3,5.16,7.71,8.01,10.22,2.85,2.52,5.84,3.77,8.95,3.77,2.88,0,5.4-.86,7.55-2.59,2.15-1.72,3.82-4.38,5-7.97,1.19-3.59,1.78-8.13,1.78-13.61,0-5.88-.5-11.83-1.48-17.85-.99-6.02-2.4-11.8-4.24-17.34Z"/>
      <path class="cls-1" d="M194.61,44.27c0-4.81-1.05-9.09-3.14-12.85-2.09-3.76-4.99-6.71-8.69-8.86-3.7-2.15-8.04-3.22-13.02-3.22h-3.14v45.5c.21.03.42.06.64.08,1.84.2,3.8.3,5.89.3,6.95,0,12.27-1.77,15.94-5.3,3.67-3.53,5.51-8.75,5.51-15.65Z"/>
      <path class="cls-1" d="M784.63,44.27c0-4.81-1.05-9.09-3.14-12.85-2.09-3.76-4.99-6.71-8.69-8.86-3.7-2.15-8.04-3.22-13.02-3.22h-3.14v45.5c.21.03.42.06.64.08,1.84.2,3.8.3,5.89.3,6.95,0,12.27-1.77,15.94-5.3,3.67-3.53,5.51-8.75,5.51-15.65Z"/>
      <polygon class="cls-1" points="876.35 67.68 902.99 67.68 889.88 23.09 876.35 67.68"/>
      <path class="cls-2" d="M237.61,104.49c-1.92-.96-3.35-1.92-4.28-2.88-.93-.96-1.91-2.38-2.93-4.24l-13.86-25.52c1.47-.76,2.87-1.62,4.19-2.6,4.01-2.97,7.11-6.6,9.29-10.9,2.18-4.3,3.27-8.88,3.27-13.74,0-8.03-2.32-15.17-6.96-21.42-4.64-6.25-11.51-11.17-20.61-14.76-9.1-3.59-20.35-5.39-33.76-5.39h-46.31c-3.11,0-5.46.75-7.04,2.25-1.58,1.5-2.38,3.58-2.38,6.23,0,4.13,1.81,7.15,5.43,9.08l2.63,1.44c1.47.79,2.54,1.7,3.22,2.71.68,1.02,1.02,2.54,1.02,4.58v66.15c0,2.04-.34,3.56-1.02,4.58-.68,1.02-1.75,1.92-3.22,2.71l-2.63,1.44c-3.62,1.92-5.43,4.95-5.43,9.07,0,2.66.79,4.74,2.38,6.23,1.58,1.5,3.93,2.25,7.04,2.25h42.49c6.28,0,9.41-2.83,9.41-8.48,0-1.98-.34-3.67-1.02-5.09-.68-1.41-1.87-2.66-3.56-3.73l-2.12-1.36c-1.41-.96-2.47-1.94-3.18-2.93-.71-.99-1.06-2.56-1.06-4.71v-16.07c1.29.32,2.63.6,4.03.85,2.74.48,5.58.72,8.52.72,1.05,0,2.06-.02,3.02-.07l9.37,20.09c.56,1.24.79,2.26.68,3.05-.11.79-.42,1.44-.93,1.95l-1.1.93c-.96.85-1.7,1.78-2.21,2.8s-.76,2.21-.76,3.56c0,5.65,3.02,8.48,9.07,8.48h36.72c3.22,0,5.6-.76,7.12-2.29,1.53-1.53,2.29-3.59,2.29-6.19,0-2.15-.41-3.93-1.23-5.34-.82-1.41-2.02-2.57-3.6-3.48ZM167.26,64.92c-.21-.02-.42-.06-.64-.08V19.34h3.14c4.98,0,9.31,1.07,13.02,3.22,3.7,2.15,6.6,5.1,8.69,8.86,2.09,3.76,3.14,8.04,3.14,12.85,0,6.9-1.84,12.12-5.51,15.65-3.68,3.53-8.99,5.3-15.94,5.3-2.09,0-4.06-.1-5.89-.3Z"/>
      <path class="cls-2" d="M350.5,17.56c-5.43-5.43-11.99-9.64-19.68-12.64-7.69-3-16.31-4.5-25.87-4.5s-17.66,1.57-25.15,4.71c-7.49,3.14-13.9,7.48-19.21,13.02-5.32,5.54-9.39,12.02-12.21,19.42-2.83,7.41-4.24,15.44-4.24,24.09,0,9.44,1.43,18.02,4.28,25.74,2.85,7.72,6.98,14.33,12.38,19.85,5.4,5.51,11.94,9.75,19.63,12.72,7.69,2.97,16.37,4.45,26.04,4.45s17.65-1.54,25.15-4.62c7.49-3.08,13.89-7.41,19.21-12.98,5.31-5.57,9.4-12.21,12.26-19.93,2.85-7.72,4.28-16.18,4.28-25.4s-1.46-17.13-4.37-24.6c-2.91-7.46-7.08-13.91-12.51-19.34ZM325.9,95.97c-1.19,3.59-2.86,6.25-5,7.97-2.15,1.73-4.66,2.59-7.55,2.59-3.11,0-6.09-1.26-8.95-3.77-2.86-2.52-5.53-5.92-8.01-10.22-2.49-4.3-4.65-9.19-6.49-14.67-1.84-5.48-3.28-11.27-4.33-17.34-1.05-6.08-1.57-12.09-1.57-18.02,0-5.31.56-9.77,1.7-13.36,1.13-3.59,2.76-6.3,4.88-8.14,2.12-1.84,4.71-2.76,7.76-2.76s6.22,1.27,9.16,3.82c2.94,2.54,5.63,5.98,8.06,10.3,2.43,4.33,4.57,9.26,6.4,14.8,1.84,5.54,3.25,11.32,4.24,17.34.99,6.02,1.48,11.97,1.48,17.85,0,5.48-.59,10.02-1.78,13.61Z"/>
      <path class="cls-2" d="M694.75,82.69c-2.49-.51-4.67-.31-6.53.59-1.87.91-3.31,2.71-4.33,5.43-1.75,4.41-3.56,7.76-5.43,10.05-1.87,2.29-4.09,3.83-6.66,4.62-2.57.79-5.78,1.19-9.63,1.19h-4.16c-4.13,0-7.32-1.16-9.58-3.48-2.26-2.32-3.39-5.8-3.39-10.43v-20.44h10.26c2.66,0,4.73.17,6.23.51,1.5.34,2.76.95,3.77,1.82,1.02.88,2.12,2.13,3.31,3.77,1.24,1.75,2.76,2.96,4.54,3.6,1.78.65,3.58.67,5.38.04,2.09-.68,3.56-1.89,4.41-3.65.85-1.75.93-4.07.25-6.95l-5.26-22.39c-1.08-4.41-3.62-6.62-7.63-6.62-1.7,0-3.2.47-4.5,1.4-1.3.93-2.32,2.5-3.05,4.71-.91,2.6-1.87,4.5-2.88,5.68-1.02,1.19-2.88,1.78-5.6,1.78h-9.25V20.27h15.52c2.37,0,4.48.16,6.32.47,1.84.31,3.52.95,5.05,1.91,1.53.96,2.95,2.39,4.28,4.28,1.33,1.9,2.67,4.42,4.03,7.59,1.24,2.83,2.85,4.62,4.83,5.39,1.98.76,4.04.92,6.19.47,2.38-.51,4.21-1.61,5.51-3.31,1.3-1.7,1.61-3.79.93-6.28l-5.17-18.49c-1.19-4.35-2.64-7.49-4.37-9.41-1.73-1.92-4.37-2.88-7.93-2.88-1.92,0-3.75.25-5.47.76-1.73.51-3.59,1.02-5.6,1.53-2.01.51-4.51.76-7.51.76h-57.59c-3.11,0-5.46.75-7.04,2.25-1.58,1.5-2.38,3.58-2.38,6.23,0,4.13,1.81,7.15,5.43,9.08l2.63,1.44c1.47.79,2.54,1.7,3.22,2.71s1.02,2.54,1.02,4.58v66.15c0,2.04-.34,3.56-1.02,4.58-.68,1.02-1.75,1.92-3.22,2.71l-2.63,1.44c-3.62,1.92-5.43,4.95-5.43,9.07,0,2.66.79,4.74,2.38,6.23,1.58,1.5,3.93,2.25,7.04,2.25h60.9c2.94,0,5.43.25,7.46.76,2.04.51,3.9,1.02,5.6,1.53s3.48.76,5.34.76c3.62,0,6.3-1,8.06-3.01,1.75-2.01,3.22-5.1,4.41-9.29l4.92-18.15c.85-3.05.71-5.63-.42-7.72-1.13-2.09-3-3.42-5.6-3.99Z"/>
      <path class="cls-2" d="M827.63,104.49c-1.92-.96-3.35-1.92-4.28-2.88-.93-.96-1.91-2.38-2.93-4.24l-13.86-25.52c1.47-.76,2.87-1.62,4.19-2.6,4.01-2.97,7.11-6.6,9.29-10.9,2.18-4.3,3.26-8.88,3.26-13.74,0-8.03-2.32-15.17-6.95-21.42-4.64-6.25-11.51-11.17-20.61-14.76-9.1-3.59-20.35-5.39-33.75-5.39h-46.31c-3.11,0-5.46.75-7.04,2.25-1.58,1.5-2.38,3.58-2.38,6.23,0,4.13,1.81,7.15,5.43,9.08l2.63,1.44c1.47.79,2.54,1.7,3.22,2.71s1.02,2.54,1.02,4.58v66.15c0,2.04-.34,3.56-1.02,4.58-.68,1.02-1.75,1.92-3.22,2.71l-2.63,1.44c-3.62,1.92-5.43,4.95-5.43,9.07,0,2.66.79,4.74,2.38,6.23,1.58,1.5,3.93,2.25,7.04,2.25h42.49c6.28,0,9.42-2.83,9.42-8.48,0-1.98-.34-3.67-1.02-5.09-.68-1.41-1.87-2.66-3.56-3.73l-2.12-1.36c-1.41-.96-2.47-1.94-3.18-2.93-.71-.99-1.06-2.56-1.06-4.71v-16.07c1.29.32,2.63.6,4.03.85,2.74.48,5.58.72,8.52.72,1.05,0,2.06-.02,3.02-.07l9.37,20.09c.56,1.24.79,2.26.68,3.05-.11.79-.42,1.44-.93,1.95l-1.1.93c-.96.85-1.7,1.78-2.21,2.8s-.76,2.21-.76,3.56c0,5.65,3.02,8.48,9.08,8.48h36.72c3.22,0,5.6-.76,7.12-2.29,1.53-1.53,2.29-3.59,2.29-6.19,0-2.15-.41-3.93-1.23-5.34-.82-1.41-2.02-2.57-3.6-3.48ZM757.28,64.92c-.21-.02-.42-.06-.64-.08V19.34h3.14c4.97,0,9.31,1.07,13.02,3.22,3.7,2.15,6.6,5.1,8.69,8.86,2.09,3.76,3.14,8.04,3.14,12.85,0,6.9-1.84,12.12-5.51,15.65-3.68,3.53-8.99,5.3-15.94,5.3-2.09,0-4.06-.1-5.89-.3Z"/>
      <path class="cls-2" d="M960.97,108.01c-.85-1.38-2.38-2.76-4.58-4.11-1.81-1.13-3.22-2.87-4.24-5.22-1.02-2.35-2.35-6.15-3.99-11.41l-17.64-57.25c-.79-2.77-1.12-4.85-.98-6.23.14-1.39.92-2.47,2.33-3.27,1.75-1.02,3.07-2.23,3.94-3.65.88-1.41,1.31-3.19,1.31-5.34,0-2.66-.78-4.73-2.33-6.23-1.56-1.5-3.94-2.25-7.17-2.25h-56.15c-3.17,0-5.54.75-7.12,2.25-1.58,1.5-2.38,3.58-2.38,6.23,0,2.09.41,3.85,1.23,5.26.82,1.41,2.08,2.57,3.77,3.48,1.87,1.02,2.88,2.19,3.05,3.52.17,1.33-.2,3.49-1.1,6.49l-19.25,62.93c-1.13,3.79-2.04,6.25-2.71,7.38-.68,1.13-1.56,2.12-2.63,2.97l-1.87,1.44c-1.64,1.3-2.84,2.57-3.6,3.82-.76,1.24-1.15,2.74-1.15,4.5,0,2.6.76,4.67,2.29,6.19,1.53,1.53,3.9,2.29,7.12,2.29h23.32c3.28,0,5.67-.76,7.17-2.29,1.5-1.53,2.25-3.59,2.25-6.19,0-1.98-.45-3.6-1.36-4.88-.91-1.27-2.23-2.39-3.99-3.35l-2.63-1.36c-1.92-1.07-3.18-2.15-3.77-3.22-.59-1.07-.69-2.46-.3-4.16.39-1.7,1.02-3.96,1.87-6.79l1.31-4.33h37.12l2.44,8.31c1.02,3.34,1.58,5.68,1.7,7.04.11,1.36-.37,2.35-1.44,2.97l-2.38,1.36c-1.81.96-3.17,2.09-4.07,3.39-.9,1.3-1.36,2.97-1.36,5,0,2.6.75,4.67,2.25,6.19,1.5,1.53,3.89,2.29,7.17,2.29h40.37c3.22,0,5.6-.78,7.12-2.33,1.53-1.55,2.29-3.6,2.29-6.15,0-2.15-.42-3.91-1.27-5.3ZM876.35,67.68l13.53-44.59,13.1,44.59h-26.64Z"/>
      <path class="cls-2" d="M565.82,8.86c-9.13-3.87-20.43-5.81-33.88-5.81h-44.1c-3.11,0-5.46.75-7.04,2.25-1.58,1.5-2.38,3.58-2.38,6.23,0,4.13,1.81,7.15,5.43,9.08l2.63,1.44c1.47.79,2.54,1.7,3.22,2.71.68,1.02,1.02,2.54,1.02,4.58v26.59c0,2.79,3.29,4.24,5.38,2.39,13.85-12.3,28.53-19.11,35.59-20.75,1.39-.32,2.1-1.87,1.48-3.15l-3.03-6.27c-.84-1.73,1.47-4.44,4.15-3.9l25.76,9.01c1.49.35,2.25,1.8,1.54,3.19l-8.96,25.72c-1.24,2.43-4.8,2.57-5.64.83l-3.25-6.72-2.82-1.12c-29.14,11.28-49.21,31.25-50.01,52.73-.27,7.59,5.81,13.89,13.41,13.89h29.91c3.17,0,5.53-.75,7.08-2.25,1.55-1.5,2.33-3.58,2.33-6.23,0-2.26-.42-4.06-1.27-5.39-.85-1.33-2.23-2.36-4.16-3.1l-5-2.04c-1.53-.62-2.64-1.46-3.35-2.5-.71-1.05-1.06-2.64-1.06-4.79v-11.22c4.96,1.2,10.28,1.8,15.95,1.8,10.4,0,19.24-1.58,26.5-4.75,7.26-3.17,12.79-7.65,16.58-13.44,3.79-5.79,5.68-12.57,5.68-20.31,0-8.54-2.33-16.16-7-22.86-4.67-6.7-11.56-11.99-20.69-15.86Z"/>
      <path class="cls-2" d="M467.06,70.31c-2.26-4.98-6.14-9.47-11.62-13.49-5.49-4.01-13.09-7.52-22.81-10.52-5.99-1.98-10.64-3.8-13.95-5.47-3.31-1.67-5.61-3.39-6.91-5.17-1.3-1.78-1.95-3.83-1.95-6.15,0-3.05,1.12-5.58,3.35-7.59,2.23-2.01,5.33-3.01,9.29-3.01s7.75.78,11.7,2.33c3.96,1.56,7.7,3.93,11.24,7.12,3.53,3.2,6.54,7.25,9.03,12.17,1.36,2.6,2.93,4.38,4.71,5.34,1.78.96,3.92,1.1,6.4.42,2.77-.73,4.67-2.11,5.68-4.11,1.02-2.01,1.07-4.48.17-7.42l-6.96-22.22c-1.41-4.58-2.87-7.72-4.37-9.41s-3.43-2.54-5.81-2.54c-1.87,0-3.31.42-4.33,1.27s-2.01,1.7-2.97,2.54c-.96.85-2.23,1.27-3.82,1.27-1.92,0-4-.38-6.23-1.15-2.23-.76-4.91-1.53-8.02-2.29-3.11-.76-6.9-1.15-11.36-1.15-8.71,0-16.24,1.63-22.6,4.88-6.36,3.25-11.24,7.73-14.63,13.44-3.39,5.71-5.09,12.19-5.09,19.42,0,6.39,1.22,12.19,3.65,17.39,2.43,5.2,6.64,9.85,12.64,13.95,5.99,4.1,14.3,7.65,24.94,10.64,5.6,1.64,9.84,3.2,12.72,4.66,2.88,1.47,4.85,3.04,5.89,4.71,1.05,1.67,1.57,3.58,1.57,5.72,0,3.17-1.29,5.71-3.86,7.63-2.57,1.92-6.04,2.88-10.39,2.88-3.68,0-7.11-.54-10.3-1.61-3.2-1.07-6.21-2.83-9.03-5.26-2.83-2.43-5.49-5.65-7.97-9.67-1.75-2.83-3.55-4.65-5.39-5.47-1.84-.82-3.94-.89-6.32-.21-2.32.68-3.97,1.85-4.96,3.52-.99,1.67-1.26,3.63-.81,5.89l4.41,21.8c.62,3.22,1.6,5.53,2.93,6.91,1.33,1.38,3.24,2.08,5.73,2.08,1.13,0,2.16-.16,3.1-.47.93-.31,1.87-.68,2.8-1.1.93-.42,1.95-.79,3.05-1.1s2.36-.47,3.77-.47,3.11.21,5.09.64c1.98.42,4.33.86,7.04,1.31,2.71.45,5.94.68,9.67.68,9.38,0,17.47-1.67,24.26-5s11.99-7.83,15.61-13.49c3.62-5.65,5.43-11.96,5.43-18.91,0-5.82-1.13-11.22-3.39-16.2Z"/>
      <path class="cls-2" d="M87.4,8.86c-9.13-3.87-20.43-5.81-33.88-5.81H9.41c-3.11,0-5.46.75-7.04,2.25-1.58,1.5-2.38,3.58-2.38,6.23,0,4.13,1.81,7.15,5.43,9.08l2.63,1.44c1.47.79,2.54,1.7,3.22,2.71.68,1.02,1.02,2.54,1.02,4.58v26.59c0,2.79,3.29,4.24,5.38,2.39,13.85-12.3,28.53-19.11,35.59-20.75,1.39-.32,2.1-1.87,1.48-3.15l-3.03-6.27c-.84-1.73,1.47-4.44,4.15-3.9l25.76,9.01c1.49.35,2.25,1.8,1.54,3.19l-8.96,25.72c-1.24,2.43-4.8,2.57-5.64.83l-3.25-6.72-2.82-1.12c-29.14,11.28-49.21,31.25-50.01,52.73h0c-.27,7.59,5.81,13.89,13.41,13.89h29.91c3.17,0,5.53-.75,7.08-2.25,1.55-1.5,2.33-3.58,2.33-6.23,0-2.26-.42-4.06-1.27-5.39-.85-1.33-2.23-2.36-4.16-3.1l-5-2.04c-1.53-.62-2.64-1.46-3.35-2.5-.71-1.05-1.06-2.64-1.06-4.79v-11.22c4.96,1.2,10.28,1.8,15.95,1.8,10.4,0,19.24-1.58,26.5-4.75,7.26-3.17,12.79-7.65,16.58-13.44,3.79-5.79,5.68-12.57,5.68-20.31,0-8.54-2.33-16.16-7-22.86-4.67-6.7-11.56-11.99-20.69-15.86Z"/>
    </g>
  </g>
</svg>